<?xml version="1.0" encoding="UTF-8" standalone="no"?>
<svg xmlns="http://www.w3.org/2000/svg" width="810" height="810">
  <path
     style="fill:#00bc00;stroke-width:1.69491529;fill-opacity:0"
     d="M 5.2653817,343.54115 C 7.2835147,326.76512 14.693056,295.63585 21.664171,274.6459 45.88345,201.7219 88.535245,139.66949 148.16279,90.608073 c 10.1511,-8.352302 56.49755,-39.611511 57.39677,-38.712294 1.14289,1.142878 -4.229,27.743999 -11.15249,55.226161 -16.00849,63.54434 -45.71758,125.2312 -81.15329,168.50372 -29.354501,35.84642 -71.208209,66.34532 -105.1510946,76.62383 -4.0121397,1.21495 -4.025959,1.17254 -2.8373037,-8.70834 z"
     />
  <path
     style="fill:#004800;fill-opacity:0.977359;stroke-width:0.847458"
     d="M 394.87293,-0.83306776 C 365.40525,-0.83290293 335.87942,3.2336739 307.31072,9.8504132 301.43966,10.788835 306.51388,21.304667 305.72105,26.866548 299.80259,120.27781 255.64027,209.9087 188.44583,274.73135 137.31203,324.03104 73.71942,358.99633 5.9879253,379.87643 c -6.55033439,-0.20518 -5.80763877,-4.66501 -6.42940745,11.10019 0.0796512,34.17622 1.87505565,68.9159 10.36839445,102.14958 9.5020567,41.22548 26.0399457,80.81228 48.4623087,116.66209 3.204915,5.57134 3.083476,2.87535 12.936095,0.56378 42.797894,-5.82937 85.480164,-14.10269 126.330274,-28.473 129.35208,-43.39843 243.59668,-131.06203 317.81191,-245.67831 41.24224,-63.63222 71.634,-134.61603 86.23807,-209.15833 4.52306,-21.69922 7.54206,-43.7802 11.11129,-65.579086 C 610.20017,56.358291 603.60118,54.793995 599.24692,51.44287 553.83338,25.642408 503.18436,9.2212801 451.48883,2.1442472 432.71959,-0.21306504 413.77574,-0.87104081 394.87293,-0.83306776 Z"
     />
  <path
     style="fill:#00f700;fill-opacity:1;stroke-width:0.84745765"
     d="m 305.17484,10.072984 c -30.8778,7.514046 -60.85372,18.887801 -89.19492,33.242849 -4.80485,2.2147 -13.93726,4.898971 -14.4059,11.494109 -4.01764,30.08031 -7.47716,59.517818 -16.26289,88.536868 -20.08143,58.28921 -49.69714,114.58278 -93.920528,158.19736 -24.760458,23.46209 -54.20673,43.91421 -87.585413,52.63103 -4.8779184,1.51558 -1.9227377,8.4694 -3.11757045,12.32489 0.10230712,5.13476 -1.33554413,10.31545 -0.92525161,15.36017 3.31808046,3.36323 8.55245546,-0.50855 12.42822806,-1.06233 34.34634,-10.81849 66.990612,-26.52538 98.108365,-44.52339 31.69661,-19.35865 61.57711,-41.98376 87.05096,-69.11839 34.75763,-34.2053 61.75947,-75.88467 81.10427,-120.52928 18.04356,-42.53044 28.81438,-88.523751 29.17861,-134.799384 -0.17481,-1.141108 -1.34063,-1.9257088 -2.45796,-1.754502 z"
     />
  <path
     style="fill:#00bc00;fill-opacity:1;stroke-width:0.78125"
     d="m 612.59182,60.982997 c -2.96247,3.443576 -1.92243,8.90625 -3.10807,13.164685 -5.88207,39.030318 -13.00184,78.036238 -25.5668,115.545048 -40.43767,126.32811 -123.48411,238.35258 -232.8102,313.58426 -79.24286,54.82321 -171.7639,91.21209 -267.506121,103.70914 -7.099953,1.50506 -14.802368,1.61977 -21.393332,4.81779 -2.491368,3.58842 2.519254,7.24677 3.845215,10.43853 35.768068,53.97041 84.916408,98.94064 141.970488,129.57003 53.91489,29.03092 114.47853,45.9523 175.69156,48.3734 30.076,0.47291 60.31215,-0.5484 89.89094,-6.45509 49.95019,-9.07355 97.90235,-28.12356 141.03814,-54.79759 C 691.4114,690.5398 750.59507,615.18792 779.5607,529.19875 805.45591,453.83678 807.95097,370.67384 786.74084,293.86726 774.4468,249.70069 754.68959,207.58567 728.93856,169.6744 709.08528,140.97741 685.24821,115.13161 658.35912,92.897747 644.36895,81.215724 629.90624,69.780261 613.97884,60.888392 c -0.46925,-0.167751 -0.92824,-0.01934 -1.38702,0.0946 z"
     />
  <path
     style="fill:#00bc00;fill-opacity:1;stroke-width:0.78125"
     d="M 200.47678,52.165597 C 185.21065,60.661018 170.85883,70.884416 156.69496,81.131119 121.02704,107.14717 91.160592,140.53149 66.45014,176.95947 31.195011,229.54247 9.1861007,290.65864 1.5098033,353.43055 c 1.0170709,4.53528 6.3771097,0.53046 9.3368527,0.24566 30.417752,-9.80696 57.221696,-28.64822 80.415108,-50.28695 44.947926,-44.3678 75.628816,-101.41209 95.593476,-160.90076 8.98546,-28.53161 12.57772,-58.407774 16.11941,-87.99899 0.1813,-1.2677 -1.2566,-2.613234 -2.49787,-2.323913 z"
     />
</svg>
